<svg xmlns="http://www.w3.org/2000/svg" width="60" height="75" viewBox="0 0 60 75"><g transform="translate(-64 -16)"><path d="M108.634,16.366A1.25,1.25,0,0,0,107.75,16h-35A8.76,8.76,0,0,0,64,24.75v57.5A8.76,8.76,0,0,0,72.75,91h42.5A8.76,8.76,0,0,0,124,82.25v-50a1.25,1.25,0,0,0-.366-.884Zm.366,3.9L119.732,31H115.25A6.257,6.257,0,0,1,109,24.75ZM72.75,18.5H106.5v6.25a8.76,8.76,0,0,0,8.75,8.75h6.25v35h-55V24.75A6.257,6.257,0,0,1,72.75,18.5Zm42.5,70H72.75a6.257,6.257,0,0,1-6.25-6.25V71h55V82.25a6.257,6.257,0,0,1-6.25,6.25Z" fill="#eaeaea"/><path d="M235.75,386.5h2.5a1.25,1.25,0,0,0,0-2.5h-2.5a3.75,3.75,0,0,0,0,7.5,1.25,1.25,0,0,1,0,2.5h-2.5a1.25,1.25,0,0,0,0,2.5h2.5a3.75,3.75,0,0,0,0-7.5,1.25,1.25,0,0,1,0-2.5Z" transform="translate(-141.75 -310.5)" fill="#eaeaea"/><path d="M299.75,386.5h2.5a1.25,1.25,0,0,0,0-2.5h-2.5a3.75,3.75,0,0,0,0,7.5,1.25,1.25,0,0,1,0,2.5h-2.5a1.25,1.25,0,0,0,0,2.5h2.5a3.75,3.75,0,0,0,0-7.5,1.25,1.25,0,0,1,0-2.5Z" transform="translate(-195.75 -310.5)" fill="#eaeaea"/><path d="M173,386.5a1.673,1.673,0,0,1,.717.165,1.25,1.25,0,0,0,1.066-2.262A4.153,4.153,0,0,0,173,384c-2.757,0-5,2.8-5,6.25s2.243,6.25,5,6.25a4.153,4.153,0,0,0,1.783-.4,1.25,1.25,0,1,0-1.066-2.262A1.673,1.673,0,0,1,173,394c-1.355,0-2.5-1.717-2.5-3.75S171.645,386.5,173,386.5Z" transform="translate(-87.75 -310.5)" fill="#eaeaea"/><circle cx="1" cy="1" r="1" transform="translate(93 44)" fill="#eaeaea"/><circle cx="1" cy="1" r="1" transform="translate(93 49)" fill="#eaeaea"/><path d="M145.25,156.5a1.251,1.251,0,0,1,1.25,1.25v5a3.754,3.754,0,0,0,3.75,3.75,1.25,1.25,0,0,0,0-2.5,1.251,1.251,0,0,1-1.25-1.25v-5a3.734,3.734,0,0,0-.957-2.5,3.734,3.734,0,0,0,.957-2.5v-5a1.251,1.251,0,0,1,1.25-1.25,1.25,1.25,0,0,0,0-2.5,3.754,3.754,0,0,0-3.75,3.75v5a1.251,1.251,0,0,1-1.25,1.25,1.25,1.25,0,1,0,0,2.5Z" transform="translate(-67.5 -108)" fill="#eaeaea"/><path d="M322.5,162.75a1.251,1.251,0,0,1-1.25,1.25,1.25,1.25,0,0,0,0,2.5,3.754,3.754,0,0,0,3.75-3.75v-5a1.251,1.251,0,0,1,1.25-1.25,1.25,1.25,0,0,0,0-2.5,1.251,1.251,0,0,1-1.25-1.25v-5a3.754,3.754,0,0,0-3.75-3.75,1.25,1.25,0,0,0,0,2.5,1.251,1.251,0,0,1,1.25,1.25v5a3.734,3.734,0,0,0,.957,2.5,3.734,3.734,0,0,0-.957,2.5Z" transform="translate(-216 -108)" fill="#eaeaea"/></g></svg>