<svg xmlns="http://www.w3.org/2000/svg" width="36" height="36" viewBox="0 0 36 36"><path d="M31.781,0H4.219A4.224,4.224,0,0,0,0,4.219V31.781A4.224,4.224,0,0,0,4.219,36H31.781A4.224,4.224,0,0,0,36,31.781V4.219A4.224,4.224,0,0,0,31.781,0Zm1.406,31.781a1.408,1.408,0,0,1-1.406,1.406H23.766V21.727H28.11l.718-4.359H23.766V14.344a2.074,2.074,0,0,1,2.109-2.109h2.883V7.875H25.875a6.468,6.468,0,0,0-6.467,6.481v3.011h-4.22v4.359h4.22V33.188H4.219a1.408,1.408,0,0,1-1.406-1.406V4.219A1.408,1.408,0,0,1,4.219,2.813H31.781a1.408,1.408,0,0,1,1.406,1.406Z" fill="#eaeaea"/></svg>