<svg xmlns="http://www.w3.org/2000/svg" width="60" height="75" viewBox="0 0 60 75"><g transform="translate(-64 -16)"><path d="M108.634,16.366A1.25,1.25,0,0,0,107.75,16h-35A8.76,8.76,0,0,0,64,24.75v57.5A8.76,8.76,0,0,0,72.75,91h42.5A8.76,8.76,0,0,0,124,82.25v-50a1.25,1.25,0,0,0-.366-.884Zm.366,3.9L119.732,31H115.25A6.257,6.257,0,0,1,109,24.75ZM72.75,18.5H106.5v6.25a8.76,8.76,0,0,0,8.75,8.75h6.25v35h-55V24.75a6.257,6.257,0,0,1,6.25-6.25Zm42.5,70H72.75a6.257,6.257,0,0,1-6.25-6.25V71h55V82.25a6.257,6.257,0,0,1-6.25,6.25Z" fill="#eaeaea"/><path d="M134.583,384a1.317,1.317,0,0,0-1.317,1.317v3.95h-2.633v-3.95a1.317,1.317,0,0,0-2.633,0V395.85a1.317,1.317,0,1,0,2.633,0V391.9h2.633v3.95a1.317,1.317,0,1,0,2.633,0V385.317A1.317,1.317,0,0,0,134.583,384Z" transform="translate(-54.076 -311.433)" fill="#eaeaea"/><path d="M198.583,384h-5.267a1.317,1.317,0,1,0,0,2.633h1.317v9.217a1.317,1.317,0,1,0,2.633,0v-9.217h1.317a1.317,1.317,0,1,0,0-2.633Z" transform="translate(-108.152 -311.433)" fill="#eaeaea"/><path d="M265.519,384.035a1.317,1.317,0,0,0-1.48.693l-2.772,5.545-2.772-5.545a1.317,1.317,0,0,0-2.494.589v10.533a1.317,1.317,0,1,0,2.633,0v-4.956l1.456,2.911a1.317,1.317,0,0,0,2.355,0l1.456-2.911v4.956a1.317,1.317,0,1,0,2.633,0V385.316A1.317,1.317,0,0,0,265.519,384.035Z" transform="translate(-162.32 -311.433)" fill="#eaeaea"/><path d="M342.583,394.533h-3.95v-9.217a1.317,1.317,0,0,0-2.633,0V395.85a1.317,1.317,0,0,0,1.317,1.317h5.267a1.317,1.317,0,1,0,0-2.633Z" transform="translate(-229.824 -311.433)" fill="#eaeaea"/><path d="M152.285,170.048a1.317,1.317,0,1,0,1.862-1.862l-6.969-6.969,6.969-6.969a1.317,1.317,0,1,0-1.862-1.862l-7.9,7.9a1.317,1.317,0,0,0,0,1.862Z" transform="translate(-67.633 -115.095)" fill="#eaeaea"/><path d="M304.385,170.048a1.317,1.317,0,0,0,1.862,0l7.9-7.9a1.317,1.317,0,0,0,0-1.862l-7.9-7.9a1.317,1.317,0,1,0-1.862,1.862l6.969,6.969-6.969,6.969A1.317,1.317,0,0,0,304.385,170.048Z" transform="translate(-202.9 -115.095)" fill="#eaeaea"/><path d="M224.9,154.264a1.315,1.315,0,0,0,1.665-.833l7.9-23.7a1.317,1.317,0,1,0-2.5-.833l-7.9,23.7A1.317,1.317,0,0,0,224.9,154.264Z" transform="translate(-135.265 -94.965)" fill="#eaeaea"/></g></svg>