<svg xmlns="http://www.w3.org/2000/svg" width="36" height="36" viewBox="0 0 36 36"><path d="M24.75,0H11.25A11.251,11.251,0,0,0,0,11.25v13.5A11.251,11.251,0,0,0,11.25,36h13.5A11.251,11.251,0,0,0,36,24.75V11.25A11.251,11.251,0,0,0,24.75,0Zm7.875,24.75a7.884,7.884,0,0,1-7.875,7.875H11.25A7.884,7.884,0,0,1,3.375,24.75V11.25A7.884,7.884,0,0,1,11.25,3.375h13.5a7.884,7.884,0,0,1,7.875,7.875Z" fill="#eaeaea"/><g transform="translate(9 9)"><path d="M137,128a9,9,0,1,0,9,9A9,9,0,0,0,137,128Zm0,14.625A5.625,5.625,0,1,1,142.625,137,5.633,5.633,0,0,1,137,142.625Z" transform="translate(-128 -128)" fill="#eaeaea"/></g><g transform="translate(26.476 7.126)"><circle cx="1.199" cy="1.199" r="1.199" fill="#eaeaea"/></g></svg>