<svg xmlns="http://www.w3.org/2000/svg" width="60" height="75" viewBox="0 0 60 75"><g transform="translate(-64 -16)"><path d="M108.634,16.366A1.25,1.25,0,0,0,107.75,16h-35A8.76,8.76,0,0,0,64,24.75v57.5A8.76,8.76,0,0,0,72.75,91h42.5A8.76,8.76,0,0,0,124,82.25v-50a1.25,1.25,0,0,0-.366-.884Zm.366,3.9L119.732,31H115.25A6.257,6.257,0,0,1,109,24.75ZM72.75,18.5H106.5v6.25a8.76,8.76,0,0,0,8.75,8.75h6.25v35h-55V24.75A6.257,6.257,0,0,1,72.75,18.5Zm42.5,70H72.75a6.257,6.257,0,0,1-6.25-6.25V71h55V82.25a6.257,6.257,0,0,1-6.25,6.25Z" fill="#eaeaea"/><path d="M206.25,384a1.25,1.25,0,0,0-1.25,1.25v7.5a1.25,1.25,0,0,1-2.5,0,1.25,1.25,0,0,0-2.5,0,3.75,3.75,0,0,0,7.5,0v-7.5A1.25,1.25,0,0,0,206.25,384Z" transform="translate(-114.75 -310.5)" fill="#eaeaea"/><path d="M267.75,386.5h2.5a1.25,1.25,0,0,0,0-2.5h-2.5a3.75,3.75,0,0,0,0,7.5,1.25,1.25,0,0,1,0,2.5h-2.5a1.25,1.25,0,0,0,0,2.5h2.5a3.75,3.75,0,0,0,0-7.5,1.25,1.25,0,0,1,0-2.5Z" transform="translate(-168.75 -310.5)" fill="#eaeaea"/><ellipse cx="1" cy="1.5" rx="1" ry="1.5" transform="translate(98 46)" fill="#eaeaea"/><ellipse cx="1" cy="1.5" rx="1" ry="1.5" transform="translate(88 46)" fill="#eaeaea"/><ellipse cx="1" cy="1.5" rx="1" ry="1.5" transform="translate(93 46)" fill="#eaeaea"/><path d="M145.25,156.5a1.251,1.251,0,0,1,1.25,1.25v5a3.754,3.754,0,0,0,3.75,3.75,1.25,1.25,0,0,0,0-2.5,1.251,1.251,0,0,1-1.25-1.25v-5a3.734,3.734,0,0,0-.957-2.5,3.734,3.734,0,0,0,.957-2.5v-5a1.251,1.251,0,0,1,1.25-1.25,1.25,1.25,0,0,0,0-2.5,3.754,3.754,0,0,0-3.75,3.75v5a1.251,1.251,0,0,1-1.25,1.25,1.25,1.25,0,1,0,0,2.5Z" transform="translate(-67.5 -108)" fill="#eaeaea"/><path d="M322.5,162.75a1.251,1.251,0,0,1-1.25,1.25,1.25,1.25,0,0,0,0,2.5,3.754,3.754,0,0,0,3.75-3.75v-5a1.251,1.251,0,0,1,1.25-1.25,1.25,1.25,0,0,0,0-2.5,1.251,1.251,0,0,1-1.25-1.25v-5a3.754,3.754,0,0,0-3.75-3.75,1.25,1.25,0,0,0,0,2.5,1.251,1.251,0,0,1,1.25,1.25v5a3.734,3.734,0,0,0,.957,2.5,3.734,3.734,0,0,0-.957,2.5Z" transform="translate(-216 -108)" fill="#eaeaea"/></g></svg>