<svg xmlns="http://www.w3.org/2000/svg" width="40.533" height="64" viewBox="0 0 40.533 64"><g transform="translate(-88)"><g transform="translate(88)"><path d="M108.267,0A20.289,20.289,0,0,0,88,20.267V43.733a20.267,20.267,0,1,0,40.533,0V20.267A20.289,20.289,0,0,0,108.267,0ZM110.4,10.667v6.4a2.133,2.133,0,0,1-4.267,0v-6.4a2.133,2.133,0,0,1,4.267,0Zm-20.267,9.6A18.141,18.141,0,0,1,107.2,2.188V6.551a4.267,4.267,0,0,0-3.2,4.115v6.4a4.267,4.267,0,0,0,3.2,4.115V25.6H90.133ZM126.4,43.733a18.133,18.133,0,0,1-36.267,0v-16H126.4Zm0-18.133H109.333V21.182a4.267,4.267,0,0,0,3.2-4.115v-6.4a4.267,4.267,0,0,0-3.2-4.115V2.188A18.141,18.141,0,0,1,126.4,20.267Z" transform="translate(-88)" fill="#eaeaea"/></g></g></svg>